<svg id="svg" version="1.1" xmlns="http://www.w3.org/2000/svg" xmlns:xlink="http://www.w3.org/1999/xlink" width="400" height="400" viewBox="150 119 100 160">
  <g id="svgg">
    <path fill="#000" id="path1" d="M223.022 123.608 L 224.219 124.756 224.219 132.637 L 224.219 140.519 226.074 141.216 C 249.975 150.193,268.223 174.664,270.325 200.559 C 274.952 257.534,211.158 294.996,162.500 263.878 C 130.318 243.297,120.804 199.999,141.634 168.924 C 149.693 156.901,163.521 145.259,174.369 141.362 L 176.758 140.504 176.780 133.210 C 176.818 121.154,174.398 122.244,200.854 122.365 L 221.824 122.461 223.022 123.608" stroke="#000"  stroke-width="1"></path>
    <path fill="#84A9C0" id="path2" d="M185.547 137.112 C 185.547 145.869,185.053 146.991,180.563 148.441 C 176.869 149.635,167.232 154.636,163.620 157.234 C 161.045 159.085,157.037 162.524,155.578 164.134 C 154.981 164.793,154.080 165.705,153.575 166.162 C 153.071 166.619,152.328 167.635,151.925 168.421 C 151.522 169.207,151.045 169.910,150.865 169.983 C 149.557 170.517,144.364 179.932,143.554 183.238 L 143.306 184.249 154.494 184.513 C 167.286 184.815,165.945 185.080,167.722 181.902 C 181.810 156.711,220.460 156.878,233.837 182.189 L 235.262 184.885 244.291 184.672 C 249.257 184.555,254.252 184.586,255.390 184.740 C 258.025 185.098,258.023 185.103,256.429 181.436 C 250.078 166.827,235.138 153.211,220.024 148.259 C 215.206 146.680,215.234 146.740,215.234 138.131 L 215.234 131.055 200.391 131.055 L 185.547 131.055 185.547 137.112" stroke="#84A9C0" stroke-width="2"></path>
    <path fill="#84A9C0" id="path3" d="M195.117 172.030 C 192.052 172.623,188.006 174.171,185.930 175.544 C 185.173 176.046,183.829 176.825,182.945 177.276 C 181.060 178.238,177.627 181.522,176.765 183.189 C 176.434 183.829,175.724 185.000,175.187 185.791 C 174.651 186.582,173.736 188.652,173.155 190.392 L 172.099 193.555 172.038 208.301 L 171.977 223.047 177.949 223.047 C 181.233 223.047,184.199 223.154,184.538 223.284 C 185.472 223.642,185.294 222.979,183.780 220.465 C 180.303 214.692,180.411 205.737,184.058 197.363 C 184.924 195.376,185.792 193.750,185.988 193.750 C 186.365 193.750,189.485 198.396,190.280 200.140 C 190.772 201.220,191.406 201.523,191.406 200.680 C 191.406 200.409,191.858 199.700,192.410 199.105 C 195.333 195.952,196.791 189.226,195.676 184.030 C 195.447 182.960,195.315 181.529,195.383 180.851 L 195.508 179.619 198.605 181.644 C 206.303 186.678,210.388 194.505,209.561 202.637 C 209.008 208.078,213.568 203.133,215.287 196.427 C 215.930 193.918,216.292 194.117,218.216 198.032 C 221.813 205.352,221.543 212.829,217.405 220.493 L 216.026 223.047 222.694 223.047 L 229.362 223.047 229.206 208.496 C 229.054 194.294,229.026 193.869,228.070 190.757 C 224.052 177.681,209.286 169.290,195.117 172.030" stroke="#84A9C0"  stroke-width="2"></path>
    <path fill="#84A9C0" id="path4" d="M139.900 196.442 C 139.652 198.077,139.449 200.332,139.451 201.454 L 139.453 203.494 151.367 203.602 L 163.282 203.711 163.281 200.347 C 163.281 198.498,163.391 196.185,163.525 195.209 L 163.768 193.434 152.060 193.452 L 140.353 193.470 139.900 196.442" stroke="#84A9C0"  stroke-width="2"></path>
    <path fill="#84A9C0" id="path5" d="M238.023 196.286 C 238.165 197.964,238.281 200.357,238.281 201.603 L 238.281 203.870 250.000 203.790 L 261.718 203.711 261.721 201.758 C 261.723 200.684,261.517 198.442,261.263 196.777 L 260.802 193.750 250.225 193.745 C 244.408 193.742,239.225 193.626,238.707 193.487 L 237.766 193.236 238.023 196.286" stroke="#84A9C0"  stroke-width="2"></path>
    <path fill="#84A9C0" id="path6" d="M199.835 204.149 C 199.698 204.767,198.449 206.680,197.059 208.398 C 192.541 213.988,191.383 217.806,193.060 221.582 L 193.710 223.047 200.725 223.047 L 207.739 223.047 208.362 221.219 C 209.638 217.473,209.075 214.844,206.996 214.844 C 205.349 214.844,204.457 213.730,203.330 210.263 C 201.765 205.448,200.167 202.652,199.835 204.149" stroke="#84A9C0"  stroke-width="2"></path>
    <path fill="#84A9C0" id="path7" d="M139.804 212.361 C 139.612 213.988,140.219 217.563,141.268 220.978 L 141.893 223.011 152.587 223.013 L 163.281 223.015 163.281 217.757 L 163.281 212.500 152.180 212.500 C 146.075 212.500,140.801 212.393,140.462 212.263 C 140.122 212.132,139.826 212.176,139.804 212.361" stroke="#84A9C0"  stroke-width="2"></path>
    <path fill="#84A9C0" id="path8" d="M238.281 217.773 L 238.281 223.047 248.821 223.047 L 259.360 223.047 259.563 222.168 C 259.675 221.685,260.116 219.795,260.544 217.969 C 260.972 216.143,261.324 214.165,261.325 213.574 L 261.328 212.500 249.805 212.500 L 238.281 212.500 238.281 217.773" stroke="#84A9C0"  stroke-width="2"></path>
    <path fill="#84A9C0" id="path9" d="M145.703 232.534 C 145.703 233.557,150.010 240.532,152.600 243.705 C 178.024 274.848,226.179 273.863,250.038 241.711 C 252.730 238.084,255.613 232.972,255.276 232.426 C 254.877 231.780,145.703 231.888,145.703 232.534" stroke="#84A9C0"  stroke-width="2"></path>
    <path fill="#000" id="path10" d="M180.078 242.930 C 182.698 244.826,182.978 247.501,180.830 250.108 C 177.402 254.266,170.269 248.959,173.320 244.521 C 175.135 241.881,177.772 241.260,180.078 242.930" stroke="#000"  stroke-width="2"></path>
    <path fill="#000" id="path11" d="M203.946 243.079 C 208.117 245.881,205.914 251.557,200.654 251.561 C 199.100 251.562,198.572 251.366,197.655 250.449 C 193.502 246.297,199.054 239.793,203.946 243.079" stroke="#000"  stroke-width="2"></path>
    <path fill="#000" id="path12" d="M226.547 242.766 C 230.012 244.557,230.164 248.768,226.837 250.797 C 224.525 252.206,221.266 251.258,220.031 248.816 C 218.049 244.899,222.564 240.706,226.547 242.766" stroke="#000"  stroke-width="2"></path>
  </g>
</svg>
